<svg width="142" height="48" viewBox="0 0 142 48" fill="none" xmlns="http://www.w3.org/2000/svg">
<rect width="142" height="48" rx="8" fill="#262629"/>
<mask id="mask0_84_183626" style="mask-type:alpha" maskUnits="userSpaceOnUse" x="8" y="8" width="32" height="32">
<rect x="8" y="8" width="32" height="32" fill="#555555"/>
</mask>
<g mask="url(#mask0_84_183626)">
<g clip-path="url(#clip0_84_183626)">
<g clip-path="url(#clip1_84_183626)">
<path d="M27.4966 15.3741V14.1725H26.3498V15.3741H27.4966ZM21.6505 15.3741V14.1725H20.5036V15.3741H21.6505ZM28.098 12.0408C30.0281 13.4246 30.9931 15.3003 30.9931 17.6678H17.0071C17.0071 15.2638 17.9543 13.3881 19.8486 12.0408L18.3183 10.5105C18.0269 10.2191 18.0269 9.946 18.3183 9.69114C18.6097 9.43629 18.8828 9.43629 19.1377 9.69114L20.8859 11.4394C21.8331 10.9297 22.8711 10.6748 24.0001 10.6748C25.0926 10.6748 26.1124 10.9297 27.0596 11.4394L28.8078 9.69114C29.0992 9.43629 29.3723 9.43629 29.6272 9.69114C29.882 9.946 29.882 10.2191 29.6272 10.5105L28.098 12.0408ZM33.8882 18.8706C34.3614 18.8706 34.7713 19.0435 35.1178 19.3893C35.4644 19.735 35.6373 20.1449 35.6365 20.6189V28.7587C35.6365 29.2685 35.4636 29.6873 35.1178 30.0152C34.7721 30.343 34.3622 30.507 33.8882 30.507C33.4143 30.507 33.0044 30.343 32.6586 30.0152C32.3129 29.6873 32.14 29.2685 32.14 28.7587V20.6189C32.14 20.1457 32.3129 19.7358 32.6586 19.3893C33.0044 19.0427 33.4143 18.8699 33.8882 18.8706ZM14.112 18.8706C14.5852 18.8706 14.9951 19.0435 15.3416 19.3893C15.6882 19.735 15.861 20.1449 15.8603 20.6189V28.7587C15.8603 29.2685 15.6874 29.6873 15.3416 30.0152C14.9959 30.343 14.586 30.507 14.112 30.507C13.6381 30.507 13.2282 30.343 12.8824 30.0152C12.5367 29.6873 12.3638 29.2685 12.3638 28.7587V20.6189C12.3638 20.1457 12.5367 19.7358 12.8824 19.3893C13.2282 19.0427 13.6381 18.8699 14.112 18.8706ZM17.0071 30.507V18.8706H30.9931V30.507C30.9931 30.8349 30.884 31.108 30.6656 31.3263C30.4473 31.5447 30.1742 31.6538 29.8463 31.6538H28.6447V35.7517C28.6447 36.2615 28.4718 36.6803 28.126 37.0082C27.7802 37.3361 27.3704 37.5 26.8964 37.5C26.4224 37.5 26.0126 37.3361 25.6668 37.0082C25.321 36.6803 25.1482 36.2615 25.1482 35.7517V31.6538H22.8533V35.7517C22.8533 36.2615 22.6804 36.6803 22.3346 37.0082C21.9889 37.3361 21.579 37.5 21.105 37.5C20.6311 37.5 20.2212 37.3361 19.8754 37.0082C19.5297 36.6803 19.3568 36.2615 19.3568 35.7517V31.6538H18.1551C17.8272 31.6538 17.5541 31.5447 17.3358 31.3263C17.1175 31.108 17.0083 30.8349 17.0083 30.507H17.0071Z" fill="#ABC252"/>
</g>
</g>
</g>
<path d="M46.3086 18.4248H44.5273L44.5391 17.5049H46.3086C46.918 17.5049 47.4258 17.3779 47.832 17.124C48.2383 16.8662 48.543 16.5068 48.7461 16.0459C48.9531 15.5811 49.0566 15.0381 49.0566 14.417V13.8955C49.0566 13.4072 48.998 12.9736 48.8809 12.5947C48.7637 12.2119 48.5918 11.8896 48.3652 11.6279C48.1387 11.3623 47.8613 11.1611 47.5332 11.0244C47.209 10.8877 46.8359 10.8193 46.4141 10.8193H44.4922V9.89355H46.4141C46.9727 9.89355 47.4824 9.9873 47.9434 10.1748C48.4043 10.3584 48.8008 10.626 49.1328 10.9775C49.4688 11.3252 49.7266 11.7471 49.9062 12.2432C50.0859 12.7354 50.1758 13.29 50.1758 13.9072V14.417C50.1758 15.0342 50.0859 15.5908 49.9062 16.0869C49.7266 16.5791 49.4668 16.999 49.127 17.3467C48.791 17.6943 48.3848 17.9619 47.9082 18.1494C47.4355 18.333 46.9023 18.4248 46.3086 18.4248ZM45.1309 9.89355V18.4248H44V9.89355H45.1309Z" fill="white" fill-opacity="0.8"/>
<path d="M51.4238 15.3252V15.1904C51.4238 14.7334 51.4902 14.3096 51.623 13.9189C51.7559 13.5244 51.9473 13.1826 52.1973 12.8936C52.4473 12.6006 52.75 12.374 53.1055 12.2139C53.4609 12.0498 53.8594 11.9678 54.3008 11.9678C54.7461 11.9678 55.1465 12.0498 55.502 12.2139C55.8613 12.374 56.166 12.6006 56.416 12.8936C56.6699 13.1826 56.8633 13.5244 56.9961 13.9189C57.1289 14.3096 57.1953 14.7334 57.1953 15.1904V15.3252C57.1953 15.7822 57.1289 16.2061 56.9961 16.5967C56.8633 16.9873 56.6699 17.3291 56.416 17.6221C56.166 17.9111 55.8633 18.1377 55.5078 18.3018C55.1562 18.4619 54.7578 18.542 54.3125 18.542C53.8672 18.542 53.4668 18.4619 53.1113 18.3018C52.7559 18.1377 52.4512 17.9111 52.1973 17.6221C51.9473 17.3291 51.7559 16.9873 51.623 16.5967C51.4902 16.2061 51.4238 15.7822 51.4238 15.3252ZM52.5078 15.1904V15.3252C52.5078 15.6416 52.5449 15.9404 52.6191 16.2217C52.6934 16.499 52.8047 16.7451 52.9531 16.96C53.1055 17.1748 53.2949 17.3447 53.5215 17.4697C53.748 17.5908 54.0117 17.6514 54.3125 17.6514C54.6094 17.6514 54.8691 17.5908 55.0918 17.4697C55.3184 17.3447 55.5059 17.1748 55.6543 16.96C55.8027 16.7451 55.9141 16.499 55.9883 16.2217C56.0664 15.9404 56.1055 15.6416 56.1055 15.3252V15.1904C56.1055 14.8779 56.0664 14.583 55.9883 14.3057C55.9141 14.0244 55.8008 13.7764 55.6484 13.5615C55.5 13.3428 55.3125 13.1709 55.0859 13.0459C54.8633 12.9209 54.6016 12.8584 54.3008 12.8584C54.0039 12.8584 53.7422 12.9209 53.5156 13.0459C53.293 13.1709 53.1055 13.3428 52.9531 13.5615C52.8047 13.7764 52.6934 14.0244 52.6191 14.3057C52.5449 14.583 52.5078 14.8779 52.5078 15.1904Z" fill="white" fill-opacity="0.8"/>
<path d="M60.1602 17.2998L61.7891 12.085H62.5039L62.3633 13.1221L60.7051 18.4248H60.0078L60.1602 17.2998ZM59.0645 12.085L60.4531 17.3584L60.5527 18.4248H59.8203L57.9805 12.085H59.0645ZM64.0625 17.3174L65.3867 12.085H66.4648L64.625 18.4248H63.8984L64.0625 17.3174ZM62.6621 12.085L64.2559 17.2119L64.4375 18.4248H63.7461L62.041 13.1104L61.9004 12.085H62.6621Z" fill="white" fill-opacity="0.8"/>
<path d="M68.6621 13.4385V18.4248H67.5781V12.085H68.6035L68.6621 13.4385ZM68.4043 15.0146L67.9531 14.9971C67.957 14.5635 68.0215 14.1631 68.1465 13.7959C68.2715 13.4248 68.4473 13.1025 68.6738 12.8291C68.9004 12.5557 69.1699 12.3447 69.4824 12.1963C69.7988 12.0439 70.1484 11.9678 70.5312 11.9678C70.8438 11.9678 71.125 12.0107 71.375 12.0967C71.625 12.1787 71.8379 12.3115 72.0137 12.4951C72.1934 12.6787 72.3301 12.917 72.4238 13.21C72.5176 13.499 72.5645 13.8525 72.5645 14.2705V18.4248H71.4746V14.2588C71.4746 13.9268 71.4258 13.6611 71.3281 13.4619C71.2305 13.2588 71.0879 13.1123 70.9004 13.0225C70.7129 12.9287 70.4824 12.8818 70.209 12.8818C69.9395 12.8818 69.6934 12.9385 69.4707 13.0518C69.252 13.165 69.0625 13.3213 68.9023 13.5205C68.7461 13.7197 68.623 13.9482 68.5332 14.2061C68.4473 14.46 68.4043 14.7295 68.4043 15.0146Z" fill="white" fill-opacity="0.8"/>
<path d="M75.3887 9.4248V18.4248H74.2988V9.4248H75.3887Z" fill="white" fill-opacity="0.8"/>
<path d="M76.8418 15.3252V15.1904C76.8418 14.7334 76.9082 14.3096 77.041 13.9189C77.1738 13.5244 77.3652 13.1826 77.6152 12.8936C77.8652 12.6006 78.168 12.374 78.5234 12.2139C78.8789 12.0498 79.2773 11.9678 79.7188 11.9678C80.1641 11.9678 80.5645 12.0498 80.9199 12.2139C81.2793 12.374 81.584 12.6006 81.834 12.8936C82.0879 13.1826 82.2812 13.5244 82.4141 13.9189C82.5469 14.3096 82.6133 14.7334 82.6133 15.1904V15.3252C82.6133 15.7822 82.5469 16.2061 82.4141 16.5967C82.2812 16.9873 82.0879 17.3291 81.834 17.6221C81.584 17.9111 81.2812 18.1377 80.9258 18.3018C80.5742 18.4619 80.1758 18.542 79.7305 18.542C79.2852 18.542 78.8848 18.4619 78.5293 18.3018C78.1738 18.1377 77.8691 17.9111 77.6152 17.6221C77.3652 17.3291 77.1738 16.9873 77.041 16.5967C76.9082 16.2061 76.8418 15.7822 76.8418 15.3252ZM77.9258 15.1904V15.3252C77.9258 15.6416 77.9629 15.9404 78.0371 16.2217C78.1113 16.499 78.2227 16.7451 78.3711 16.96C78.5234 17.1748 78.7129 17.3447 78.9395 17.4697C79.166 17.5908 79.4297 17.6514 79.7305 17.6514C80.0273 17.6514 80.2871 17.5908 80.5098 17.4697C80.7363 17.3447 80.9238 17.1748 81.0723 16.96C81.2207 16.7451 81.332 16.499 81.4062 16.2217C81.4844 15.9404 81.5234 15.6416 81.5234 15.3252V15.1904C81.5234 14.8779 81.4844 14.583 81.4062 14.3057C81.332 14.0244 81.2188 13.7764 81.0664 13.5615C80.918 13.3428 80.7305 13.1709 80.5039 13.0459C80.2812 12.9209 80.0195 12.8584 79.7188 12.8584C79.4219 12.8584 79.1602 12.9209 78.9336 13.0459C78.7109 13.1709 78.5234 13.3428 78.3711 13.5615C78.2227 13.7764 78.1113 14.0244 78.0371 14.3057C77.9629 14.583 77.9258 14.8779 77.9258 15.1904Z" fill="white" fill-opacity="0.8"/>
<path d="M87.7109 17.3408V14.0771C87.7109 13.8271 87.6602 13.6104 87.5586 13.4268C87.4609 13.2393 87.3125 13.0947 87.1133 12.9932C86.9141 12.8916 86.668 12.8408 86.375 12.8408C86.1016 12.8408 85.8613 12.8877 85.6543 12.9814C85.4512 13.0752 85.291 13.1982 85.1738 13.3506C85.0605 13.5029 85.0039 13.667 85.0039 13.8428H83.9199C83.9199 13.6162 83.9785 13.3916 84.0957 13.1689C84.2129 12.9463 84.3809 12.7451 84.5996 12.5654C84.8223 12.3818 85.0879 12.2373 85.3965 12.1318C85.709 12.0225 86.0566 11.9678 86.4395 11.9678C86.9004 11.9678 87.3066 12.0459 87.6582 12.2021C88.0137 12.3584 88.291 12.5947 88.4902 12.9111C88.6934 13.2236 88.7949 13.6162 88.7949 14.0889V17.042C88.7949 17.2529 88.8125 17.4775 88.8477 17.7158C88.8867 17.9541 88.9434 18.1592 89.0176 18.3311V18.4248H87.8867C87.832 18.2998 87.7891 18.1338 87.7578 17.9268C87.7266 17.7158 87.7109 17.5205 87.7109 17.3408ZM87.8984 14.5811L87.9102 15.3428H86.8145C86.5059 15.3428 86.2305 15.3682 85.9883 15.4189C85.7461 15.4658 85.543 15.5381 85.3789 15.6357C85.2148 15.7334 85.0898 15.8564 85.0039 16.0049C84.918 16.1494 84.875 16.3193 84.875 16.5146C84.875 16.7139 84.9199 16.8955 85.0098 17.0596C85.0996 17.2236 85.2344 17.3545 85.4141 17.4521C85.5977 17.5459 85.8223 17.5928 86.0879 17.5928C86.4199 17.5928 86.7129 17.5225 86.9668 17.3818C87.2207 17.2412 87.4219 17.0693 87.5703 16.8662C87.7227 16.6631 87.8047 16.4658 87.8164 16.2744L88.2793 16.7959C88.252 16.96 88.1777 17.1416 88.0566 17.3408C87.9355 17.54 87.7734 17.7314 87.5703 17.915C87.3711 18.0947 87.1328 18.2451 86.8555 18.3662C86.582 18.4834 86.2734 18.542 85.9297 18.542C85.5 18.542 85.123 18.458 84.7988 18.29C84.4785 18.1221 84.2285 17.8975 84.0488 17.6162C83.873 17.3311 83.7852 17.0127 83.7852 16.6611C83.7852 16.3213 83.8516 16.0225 83.9844 15.7646C84.1172 15.5029 84.3086 15.2861 84.5586 15.1143C84.8086 14.9385 85.1094 14.8057 85.4609 14.7158C85.8125 14.626 86.2051 14.5811 86.6387 14.5811H87.8984Z" fill="white" fill-opacity="0.8"/>
<path d="M94.4961 17.1943V9.4248H95.5859V18.4248H94.5898L94.4961 17.1943ZM90.2305 15.3252V15.2021C90.2305 14.7178 90.2891 14.2783 90.4062 13.8838C90.5273 13.4854 90.6973 13.1436 90.916 12.8584C91.1387 12.5732 91.4023 12.3545 91.707 12.2021C92.0156 12.0459 92.3594 11.9678 92.7383 11.9678C93.1367 11.9678 93.4844 12.0381 93.7812 12.1787C94.082 12.3154 94.3359 12.5166 94.543 12.7822C94.7539 13.0439 94.9199 13.3604 95.041 13.7314C95.1621 14.1025 95.2461 14.5225 95.293 14.9912V15.5303C95.25 15.9951 95.166 16.4131 95.041 16.7842C94.9199 17.1553 94.7539 17.4717 94.543 17.7334C94.3359 17.9951 94.082 18.1963 93.7812 18.3369C93.4805 18.4736 93.1289 18.542 92.7266 18.542C92.3555 18.542 92.0156 18.4619 91.707 18.3018C91.4023 18.1416 91.1387 17.917 90.916 17.6279C90.6973 17.3389 90.5273 16.999 90.4062 16.6084C90.2891 16.2139 90.2305 15.7861 90.2305 15.3252ZM91.3203 15.2021V15.3252C91.3203 15.6416 91.3516 15.9385 91.4141 16.2158C91.4805 16.4932 91.582 16.7373 91.7188 16.9482C91.8555 17.1592 92.0293 17.3252 92.2402 17.4463C92.4512 17.5635 92.7031 17.6221 92.9961 17.6221C93.3555 17.6221 93.6504 17.5459 93.8809 17.3936C94.1152 17.2412 94.3027 17.04 94.4434 16.79C94.584 16.54 94.6934 16.2686 94.7715 15.9756V14.5635C94.7246 14.3486 94.6562 14.1416 94.5664 13.9424C94.4805 13.7393 94.3672 13.5596 94.2266 13.4033C94.0898 13.2432 93.9199 13.1162 93.7168 13.0225C93.5176 12.9287 93.2812 12.8818 93.0078 12.8818C92.7109 12.8818 92.4551 12.9443 92.2402 13.0693C92.0293 13.1904 91.8555 13.3584 91.7188 13.5732C91.582 13.7842 91.4805 14.0303 91.4141 14.3115C91.3516 14.5889 91.3203 14.8857 91.3203 15.2021Z" fill="white" fill-opacity="0.8"/>
<path d="M100.965 16.7432C100.965 16.5869 100.93 16.4424 100.859 16.3096C100.793 16.1729 100.654 16.0498 100.443 15.9404C100.236 15.8271 99.9238 15.7295 99.5059 15.6475C99.1543 15.5732 98.8359 15.4854 98.5508 15.3838C98.2695 15.2822 98.0293 15.1592 97.8301 15.0146C97.6348 14.8701 97.4844 14.7002 97.3789 14.5049C97.2734 14.3096 97.2207 14.0811 97.2207 13.8193C97.2207 13.5693 97.2754 13.333 97.3848 13.1104C97.498 12.8877 97.6562 12.6904 97.8594 12.5186C98.0664 12.3467 98.3145 12.2119 98.6035 12.1143C98.8926 12.0166 99.2148 11.9678 99.5703 11.9678C100.078 11.9678 100.512 12.0576 100.871 12.2373C101.23 12.417 101.506 12.6572 101.697 12.958C101.889 13.2549 101.984 13.585 101.984 13.9482H100.9C100.9 13.7725 100.848 13.6025 100.742 13.4385C100.641 13.2705 100.49 13.1318 100.291 13.0225C100.096 12.9131 99.8555 12.8584 99.5703 12.8584C99.2695 12.8584 99.0254 12.9053 98.8379 12.999C98.6543 13.0889 98.5195 13.2041 98.4336 13.3447C98.3516 13.4854 98.3105 13.6338 98.3105 13.79C98.3105 13.9072 98.3301 14.0127 98.3691 14.1064C98.4121 14.1963 98.4863 14.2803 98.5918 14.3584C98.6973 14.4326 98.8457 14.5029 99.0371 14.5693C99.2285 14.6357 99.4727 14.7021 99.7695 14.7686C100.289 14.8857 100.717 15.0264 101.053 15.1904C101.389 15.3545 101.639 15.5557 101.803 15.7939C101.967 16.0322 102.049 16.3213 102.049 16.6611C102.049 16.9385 101.99 17.1924 101.873 17.4229C101.76 17.6533 101.594 17.8525 101.375 18.0205C101.16 18.1846 100.902 18.3135 100.602 18.4072C100.305 18.4971 99.9707 18.542 99.5996 18.542C99.041 18.542 98.5684 18.4424 98.1816 18.2432C97.7949 18.0439 97.502 17.7861 97.3027 17.4697C97.1035 17.1533 97.0039 16.8193 97.0039 16.4678H98.0938C98.1094 16.7646 98.1953 17.001 98.3516 17.1768C98.5078 17.3486 98.6992 17.4717 98.9258 17.5459C99.1523 17.6162 99.377 17.6514 99.5996 17.6514C99.8965 17.6514 100.145 17.6123 100.344 17.5342C100.547 17.4561 100.701 17.3486 100.807 17.2119C100.912 17.0752 100.965 16.9189 100.965 16.7432Z" fill="white" fill-opacity="0.8"/>
<path d="M108.066 18.4248H106.982V11.417C106.982 10.96 107.064 10.5752 107.229 10.2627C107.396 9.94629 107.637 9.70801 107.949 9.54785C108.262 9.38379 108.633 9.30176 109.062 9.30176C109.188 9.30176 109.312 9.30957 109.438 9.3252C109.566 9.34082 109.691 9.36426 109.812 9.39551L109.754 10.2803C109.672 10.2607 109.578 10.2471 109.473 10.2393C109.371 10.2314 109.27 10.2275 109.168 10.2275C108.938 10.2275 108.738 10.2744 108.57 10.3682C108.406 10.458 108.281 10.5908 108.195 10.7666C108.109 10.9424 108.066 11.1592 108.066 11.417V18.4248ZM109.414 12.085V12.917H105.98V12.085H109.414Z" fill="white" fill-opacity="0.8"/>
<path d="M110.334 15.3252V15.1904C110.334 14.7334 110.4 14.3096 110.533 13.9189C110.666 13.5244 110.857 13.1826 111.107 12.8936C111.357 12.6006 111.66 12.374 112.016 12.2139C112.371 12.0498 112.77 11.9678 113.211 11.9678C113.656 11.9678 114.057 12.0498 114.412 12.2139C114.771 12.374 115.076 12.6006 115.326 12.8936C115.58 13.1826 115.773 13.5244 115.906 13.9189C116.039 14.3096 116.105 14.7334 116.105 15.1904V15.3252C116.105 15.7822 116.039 16.2061 115.906 16.5967C115.773 16.9873 115.58 17.3291 115.326 17.6221C115.076 17.9111 114.773 18.1377 114.418 18.3018C114.066 18.4619 113.668 18.542 113.223 18.542C112.777 18.542 112.377 18.4619 112.021 18.3018C111.666 18.1377 111.361 17.9111 111.107 17.6221C110.857 17.3291 110.666 16.9873 110.533 16.5967C110.4 16.2061 110.334 15.7822 110.334 15.3252ZM111.418 15.1904V15.3252C111.418 15.6416 111.455 15.9404 111.529 16.2217C111.604 16.499 111.715 16.7451 111.863 16.96C112.016 17.1748 112.205 17.3447 112.432 17.4697C112.658 17.5908 112.922 17.6514 113.223 17.6514C113.52 17.6514 113.779 17.5908 114.002 17.4697C114.229 17.3447 114.416 17.1748 114.564 16.96C114.713 16.7451 114.824 16.499 114.898 16.2217C114.977 15.9404 115.016 15.6416 115.016 15.3252V15.1904C115.016 14.8779 114.977 14.583 114.898 14.3057C114.824 14.0244 114.711 13.7764 114.559 13.5615C114.41 13.3428 114.223 13.1709 113.996 13.0459C113.773 12.9209 113.512 12.8584 113.211 12.8584C112.914 12.8584 112.652 12.9209 112.426 13.0459C112.203 13.1709 112.016 13.3428 111.863 13.5615C111.715 13.7764 111.604 14.0244 111.529 14.3057C111.455 14.583 111.418 14.8779 111.418 15.1904Z" fill="white" fill-opacity="0.8"/>
<path d="M118.549 13.0811V18.4248H117.465V12.085H118.52L118.549 13.0811ZM120.529 12.0498L120.523 13.0576C120.434 13.0381 120.348 13.0264 120.266 13.0225C120.188 13.0146 120.098 13.0107 119.996 13.0107C119.746 13.0107 119.525 13.0498 119.334 13.1279C119.143 13.2061 118.98 13.3154 118.848 13.4561C118.715 13.5967 118.609 13.7646 118.531 13.96C118.457 14.1514 118.408 14.3623 118.385 14.5928L118.08 14.7686C118.08 14.3857 118.117 14.0264 118.191 13.6904C118.27 13.3545 118.389 13.0576 118.549 12.7998C118.709 12.5381 118.912 12.335 119.158 12.1904C119.408 12.042 119.705 11.9678 120.049 11.9678C120.127 11.9678 120.217 11.9775 120.318 11.9971C120.42 12.0127 120.49 12.0303 120.529 12.0498Z" fill="white" fill-opacity="0.8"/>
<path d="M49.5859 29.1123L46.4922 38.542H44L48.2266 27.167H49.8125L49.5859 29.1123ZM52.1562 38.542L49.0547 29.1123L48.8047 27.167H50.4062L54.6562 38.542H52.1562ZM52.0156 34.3076V36.1436H46.0078V34.3076H52.0156Z" fill="white"/>
<path d="M57.5234 31.8936V38.542H55.2734V30.0889H57.3828L57.5234 31.8936ZM57.1953 34.0186H56.5859C56.5859 33.3936 56.6667 32.8311 56.8281 32.3311C56.9896 31.8258 57.2161 31.3962 57.5078 31.042C57.7995 30.6826 58.1458 30.4092 58.5469 30.2217C58.9531 30.029 59.4062 29.9326 59.9062 29.9326C60.3021 29.9326 60.6641 29.9899 60.9922 30.1045C61.3203 30.2191 61.6016 30.4014 61.8359 30.6514C62.0755 30.9014 62.2578 31.2321 62.3828 31.6436C62.513 32.055 62.5781 32.5576 62.5781 33.1514V38.542H60.3125V33.1436C60.3125 32.7686 60.2604 32.4769 60.1562 32.2686C60.0521 32.0602 59.8984 31.9144 59.6953 31.8311C59.4974 31.7425 59.2526 31.6982 58.9609 31.6982C58.6589 31.6982 58.3958 31.7581 58.1719 31.8779C57.9531 31.9977 57.7708 32.1644 57.625 32.3779C57.4844 32.5863 57.3776 32.8311 57.3047 33.1123C57.2318 33.3936 57.1953 33.6956 57.1953 34.0186Z" fill="white"/>
<path d="M69.2812 36.6982V26.542H71.5469V38.542H69.5078L69.2812 36.6982ZM63.9375 34.417V34.2529C63.9375 33.6071 64.0104 33.0212 64.1562 32.4951C64.3021 31.9639 64.5156 31.5081 64.7969 31.1279C65.0781 30.7477 65.4245 30.4535 65.8359 30.2451C66.2474 30.0368 66.7161 29.9326 67.2422 29.9326C67.737 29.9326 68.1693 30.0368 68.5391 30.2451C68.9141 30.4535 69.2318 30.7503 69.4922 31.1357C69.7578 31.516 69.9714 31.9665 70.1328 32.4873C70.2943 33.0029 70.4115 33.568 70.4844 34.1826V34.542C70.4115 35.1305 70.2943 35.6774 70.1328 36.1826C69.9714 36.6878 69.7578 37.1305 69.4922 37.5107C69.2318 37.8857 68.9141 38.1774 68.5391 38.3857C68.1641 38.5941 67.7266 38.6982 67.2266 38.6982C66.7005 38.6982 66.2318 38.5915 65.8203 38.3779C65.4141 38.1644 65.0703 37.8649 64.7891 37.4795C64.513 37.0941 64.3021 36.641 64.1562 36.1201C64.0104 35.5993 63.9375 35.0316 63.9375 34.417ZM66.1875 34.2529V34.417C66.1875 34.766 66.2135 35.0915 66.2656 35.3936C66.3229 35.6956 66.4141 35.9639 66.5391 36.1982C66.6693 36.4274 66.8359 36.6071 67.0391 36.7373C67.2474 36.8623 67.5 36.9248 67.7969 36.9248C68.1823 36.9248 68.5 36.8389 68.75 36.667C69 36.4899 69.1901 36.2477 69.3203 35.9404C69.4557 35.6331 69.5339 35.279 69.5547 34.8779V33.8545C69.5391 33.5264 69.4922 33.2321 69.4141 32.9717C69.3411 32.7061 69.2318 32.4795 69.0859 32.292C68.9453 32.1045 68.7682 31.9587 68.5547 31.8545C68.3464 31.7503 68.099 31.6982 67.8125 31.6982C67.5208 31.6982 67.2708 31.766 67.0625 31.9014C66.8542 32.0316 66.6849 32.2113 66.5547 32.4404C66.4297 32.6696 66.3359 32.9404 66.2734 33.2529C66.2161 33.5602 66.1875 33.8936 66.1875 34.2529Z" fill="white"/>
<path d="M75.5547 31.9326V38.542H73.3047V30.0889H75.4219L75.5547 31.9326ZM78.1016 30.0342L78.0625 32.1201C77.9531 32.1045 77.8203 32.0915 77.6641 32.0811C77.513 32.0654 77.375 32.0576 77.25 32.0576C76.9323 32.0576 76.6562 32.0993 76.4219 32.1826C76.1927 32.2607 76 32.3779 75.8438 32.5342C75.6927 32.6904 75.5781 32.8805 75.5 33.1045C75.4271 33.3285 75.3854 33.5837 75.375 33.8701L74.9219 33.7295C74.9219 33.1826 74.9766 32.68 75.0859 32.2217C75.1953 31.7581 75.3542 31.3545 75.5625 31.0107C75.776 30.667 76.0365 30.4014 76.3438 30.2139C76.651 30.0264 77.0026 29.9326 77.3984 29.9326C77.5234 29.9326 77.651 29.943 77.7812 29.9639C77.9115 29.9795 78.0182 30.0029 78.1016 30.0342Z" fill="white"/>
<path d="M78.5703 34.4014V34.2373C78.5703 33.6175 78.6589 33.0472 78.8359 32.5264C79.013 32.0003 79.2708 31.5446 79.6094 31.1592C79.9479 30.7738 80.3646 30.4743 80.8594 30.2607C81.3542 30.042 81.9219 29.9326 82.5625 29.9326C83.2031 29.9326 83.7734 30.042 84.2734 30.2607C84.7734 30.4743 85.1927 30.7738 85.5312 31.1592C85.875 31.5446 86.1354 32.0003 86.3125 32.5264C86.4896 33.0472 86.5781 33.6175 86.5781 34.2373V34.4014C86.5781 35.016 86.4896 35.5863 86.3125 36.1123C86.1354 36.6331 85.875 37.0889 85.5312 37.4795C85.1927 37.8649 84.776 38.1644 84.2812 38.3779C83.7865 38.5915 83.2188 38.6982 82.5781 38.6982C81.9375 38.6982 81.3672 38.5915 80.8672 38.3779C80.3724 38.1644 79.9531 37.8649 79.6094 37.4795C79.2708 37.0889 79.013 36.6331 78.8359 36.1123C78.6589 35.5863 78.5703 35.016 78.5703 34.4014ZM80.8203 34.2373V34.4014C80.8203 34.7555 80.8516 35.0863 80.9141 35.3936C80.9766 35.7008 81.0755 35.9717 81.2109 36.2061C81.3516 36.4352 81.5339 36.6149 81.7578 36.7451C81.9818 36.8753 82.2552 36.9404 82.5781 36.9404C82.8906 36.9404 83.1589 36.8753 83.3828 36.7451C83.6068 36.6149 83.7865 36.4352 83.9219 36.2061C84.0573 35.9717 84.1562 35.7008 84.2188 35.3936C84.2865 35.0863 84.3203 34.7555 84.3203 34.4014V34.2373C84.3203 33.8936 84.2865 33.5706 84.2188 33.2686C84.1562 32.9613 84.0547 32.6904 83.9141 32.4561C83.7786 32.2165 83.599 32.029 83.375 31.8936C83.151 31.7581 82.8802 31.6904 82.5625 31.6904C82.2448 31.6904 81.974 31.7581 81.75 31.8936C81.5312 32.029 81.3516 32.2165 81.2109 32.4561C81.0755 32.6904 80.9766 32.9613 80.9141 33.2686C80.8516 33.5706 80.8203 33.8936 80.8203 34.2373Z" fill="white"/>
<path d="M90.3359 30.0889V38.542H88.0781V30.0889H90.3359ZM87.9375 27.8857C87.9375 27.5576 88.0521 27.2868 88.2812 27.0732C88.5104 26.8597 88.8177 26.7529 89.2031 26.7529C89.5833 26.7529 89.888 26.8597 90.1172 27.0732C90.3516 27.2868 90.4688 27.5576 90.4688 27.8857C90.4688 28.2139 90.3516 28.4847 90.1172 28.6982C89.888 28.9118 89.5833 29.0186 89.2031 29.0186C88.8177 29.0186 88.5104 28.9118 88.2812 28.6982C88.0521 28.4847 87.9375 28.2139 87.9375 27.8857Z" fill="white"/>
<path d="M97.1875 36.6982V26.542H99.4531V38.542H97.4141L97.1875 36.6982ZM91.8438 34.417V34.2529C91.8438 33.6071 91.9167 33.0212 92.0625 32.4951C92.2083 31.9639 92.4219 31.5081 92.7031 31.1279C92.9844 30.7477 93.3307 30.4535 93.7422 30.2451C94.1536 30.0368 94.6224 29.9326 95.1484 29.9326C95.6432 29.9326 96.0755 30.0368 96.4453 30.2451C96.8203 30.4535 97.138 30.7503 97.3984 31.1357C97.6641 31.516 97.8776 31.9665 98.0391 32.4873C98.2005 33.0029 98.3177 33.568 98.3906 34.1826V34.542C98.3177 35.1305 98.2005 35.6774 98.0391 36.1826C97.8776 36.6878 97.6641 37.1305 97.3984 37.5107C97.138 37.8857 96.8203 38.1774 96.4453 38.3857C96.0703 38.5941 95.6328 38.6982 95.1328 38.6982C94.6068 38.6982 94.138 38.5915 93.7266 38.3779C93.3203 38.1644 92.9766 37.8649 92.6953 37.4795C92.4193 37.0941 92.2083 36.641 92.0625 36.1201C91.9167 35.5993 91.8438 35.0316 91.8438 34.417ZM94.0938 34.2529V34.417C94.0938 34.766 94.1198 35.0915 94.1719 35.3936C94.2292 35.6956 94.3203 35.9639 94.4453 36.1982C94.5755 36.4274 94.7422 36.6071 94.9453 36.7373C95.1536 36.8623 95.4062 36.9248 95.7031 36.9248C96.0885 36.9248 96.4062 36.8389 96.6562 36.667C96.9062 36.4899 97.0964 36.2477 97.2266 35.9404C97.362 35.6331 97.4401 35.279 97.4609 34.8779V33.8545C97.4453 33.5264 97.3984 33.2321 97.3203 32.9717C97.2474 32.7061 97.138 32.4795 96.9922 32.292C96.8516 32.1045 96.6745 31.9587 96.4609 31.8545C96.2526 31.7503 96.0052 31.6982 95.7188 31.6982C95.4271 31.6982 95.1771 31.766 94.9688 31.9014C94.7604 32.0316 94.5911 32.2113 94.4609 32.4404C94.3359 32.6696 94.2422 32.9404 94.1797 33.2529C94.1224 33.5602 94.0938 33.8936 94.0938 34.2529Z" fill="white"/>
<defs>
<clipPath id="clip0_84_183626">
<rect width="28" height="28" fill="white" transform="translate(10 9.5)"/>
</clipPath>
<clipPath id="clip1_84_183626">
<rect width="28" height="28" fill="white" transform="translate(10 9.5)"/>
</clipPath>
</defs>
</svg>
