<svg width="142" height="48" viewBox="0 0 142 48" fill="none" xmlns="http://www.w3.org/2000/svg">
<rect width="142" height="48" rx="8" fill="#262629"/>
<path d="M34.4713 30.2902C34.4363 30.3952 33.8886 32.2903 32.5429 34.2397C31.3775 35.9213 30.1718 37.617 28.2697 37.6467C26.3973 37.68 25.7988 36.539 23.6622 36.539C21.5291 36.539 20.8589 37.617 19.0898 37.68C17.2611 37.7535 15.8525 35.8426 14.6853 34.1697C12.2932 30.7417 10.4541 24.4561 12.9214 20.2441C14.1376 18.1354 16.3197 16.7968 18.696 16.7583C20.4879 16.725 22.1923 17.9622 23.2808 17.9622C24.3989 17.9622 26.4603 16.466 28.6354 16.69C29.5454 16.7285 32.0932 17.0663 33.7346 19.4269C33.6069 19.5144 30.6863 21.2222 30.7195 24.701C30.7633 28.899 34.4328 30.2762 34.4713 30.2902ZM27.2128 14.4397C28.1927 13.2532 28.8384 11.6224 28.6687 10.002C27.2688 10.0562 25.5609 10.9241 24.5477 12.1053C23.65 13.1343 22.8608 14.7914 23.0813 16.3926C24.6369 16.4853 26.2363 15.5841 27.211 14.4397" fill="white"/>
<path d="M42.3086 18.5977H40.5273L40.5391 17.6777H42.3086C42.918 17.6777 43.4258 17.5508 43.832 17.2969C44.2383 17.0391 44.543 16.6797 44.7461 16.2188C44.9531 15.7539 45.0566 15.2109 45.0566 14.5898V14.0684C45.0566 13.5801 44.998 13.1465 44.8809 12.7676C44.7637 12.3848 44.5918 12.0625 44.3652 11.8008C44.1387 11.5352 43.8613 11.334 43.5332 11.1973C43.209 11.0605 42.8359 10.9922 42.4141 10.9922H40.4922V10.0664H42.4141C42.9727 10.0664 43.4824 10.1602 43.9434 10.3477C44.4043 10.5312 44.8008 10.7988 45.1328 11.1504C45.4688 11.498 45.7266 11.9199 45.9062 12.416C46.0859 12.9082 46.1758 13.4629 46.1758 14.0801V14.5898C46.1758 15.207 46.0859 15.7637 45.9062 16.2598C45.7266 16.752 45.4668 17.1719 45.127 17.5195C44.791 17.8672 44.3848 18.1348 43.9082 18.3223C43.4355 18.5059 42.9023 18.5977 42.3086 18.5977ZM41.1309 10.0664V18.5977H40V10.0664H41.1309Z" fill="white" fill-opacity="0.8"/>
<path d="M47.1838 15.498V15.3633C47.1838 14.9062 47.2502 14.4824 47.383 14.0918C47.5159 13.6973 47.7073 13.3555 47.9573 13.0664C48.2073 12.7734 48.51 12.5469 48.8655 12.3867C49.2209 12.2227 49.6194 12.1406 50.0608 12.1406C50.5061 12.1406 50.9065 12.2227 51.262 12.3867C51.6213 12.5469 51.926 12.7734 52.176 13.0664C52.4299 13.3555 52.6233 13.6973 52.7561 14.0918C52.8889 14.4824 52.9553 14.9062 52.9553 15.3633V15.498C52.9553 15.9551 52.8889 16.3789 52.7561 16.7695C52.6233 17.1602 52.4299 17.502 52.176 17.7949C51.926 18.084 51.6233 18.3105 51.2678 18.4746C50.9163 18.6348 50.5178 18.7148 50.0725 18.7148C49.6272 18.7148 49.2268 18.6348 48.8713 18.4746C48.5159 18.3105 48.2112 18.084 47.9573 17.7949C47.7073 17.502 47.5159 17.1602 47.383 16.7695C47.2502 16.3789 47.1838 15.9551 47.1838 15.498ZM48.2678 15.3633V15.498C48.2678 15.8145 48.3049 16.1133 48.3791 16.3945C48.4534 16.6719 48.5647 16.918 48.7131 17.1328C48.8655 17.3477 49.0549 17.5176 49.2815 17.6426C49.508 17.7637 49.7717 17.8242 50.0725 17.8242C50.3694 17.8242 50.6291 17.7637 50.8518 17.6426C51.0784 17.5176 51.2659 17.3477 51.4143 17.1328C51.5627 16.918 51.6741 16.6719 51.7483 16.3945C51.8264 16.1133 51.8655 15.8145 51.8655 15.498V15.3633C51.8655 15.0508 51.8264 14.7559 51.7483 14.4785C51.6741 14.1973 51.5608 13.9492 51.4084 13.7344C51.26 13.5156 51.0725 13.3438 50.8459 13.2188C50.6233 13.0938 50.3616 13.0312 50.0608 13.0312C49.7639 13.0312 49.5022 13.0938 49.2756 13.2188C49.053 13.3438 48.8655 13.5156 48.7131 13.7344C48.5647 13.9492 48.4534 14.1973 48.3791 14.4785C48.3049 14.7559 48.2678 15.0508 48.2678 15.3633Z" fill="white" fill-opacity="0.8"/>
<path d="M55.6802 17.4727L57.3091 12.2578H58.0239L57.8833 13.2949L56.2251 18.5977H55.5278L55.6802 17.4727ZM54.5845 12.2578L55.9731 17.5312L56.0727 18.5977H55.3403L53.5005 12.2578H54.5845ZM59.5825 17.4902L60.9067 12.2578H61.9848L60.145 18.5977H59.4184L59.5825 17.4902ZM58.1821 12.2578L59.7759 17.3848L59.9575 18.5977H59.2661L57.561 13.2832L57.4204 12.2578H58.1821Z" fill="white" fill-opacity="0.8"/>
<path d="M63.9421 13.6113V18.5977H62.8581V12.2578H63.8835L63.9421 13.6113ZM63.6843 15.1875L63.2331 15.1699C63.237 14.7363 63.3015 14.3359 63.4265 13.9688C63.5515 13.5977 63.7273 13.2754 63.9538 13.002C64.1804 12.7285 64.4499 12.5176 64.7624 12.3691C65.0788 12.2168 65.4284 12.1406 65.8113 12.1406C66.1238 12.1406 66.405 12.1836 66.655 12.2695C66.905 12.3516 67.1179 12.4844 67.2937 12.668C67.4734 12.8516 67.6101 13.0898 67.7038 13.3828C67.7976 13.6719 67.8445 14.0254 67.8445 14.4434V18.5977H66.7546V14.4316C66.7546 14.0996 66.7058 13.834 66.6081 13.6348C66.5105 13.4316 66.3679 13.2852 66.1804 13.1953C65.9929 13.1016 65.7624 13.0547 65.489 13.0547C65.2195 13.0547 64.9734 13.1113 64.7507 13.2246C64.532 13.3379 64.3425 13.4941 64.1823 13.6934C64.0261 13.8926 63.903 14.1211 63.8132 14.3789C63.7273 14.6328 63.6843 14.9023 63.6843 15.1875Z" fill="white" fill-opacity="0.8"/>
<path d="M70.4287 9.59766V18.5977H69.3388V9.59766H70.4287Z" fill="white" fill-opacity="0.8"/>
<path d="M71.6418 15.498V15.3633C71.6418 14.9062 71.7082 14.4824 71.841 14.0918C71.9738 13.6973 72.1652 13.3555 72.4152 13.0664C72.6652 12.7734 72.968 12.5469 73.3234 12.3867C73.6789 12.2227 74.0773 12.1406 74.5187 12.1406C74.9641 12.1406 75.3645 12.2227 75.7199 12.3867C76.0793 12.5469 76.384 12.7734 76.634 13.0664C76.8879 13.3555 77.0812 13.6973 77.2141 14.0918C77.3469 14.4824 77.4133 14.9062 77.4133 15.3633V15.498C77.4133 15.9551 77.3469 16.3789 77.2141 16.7695C77.0812 17.1602 76.8879 17.502 76.634 17.7949C76.384 18.084 76.0812 18.3105 75.7258 18.4746C75.3742 18.6348 74.9758 18.7148 74.5305 18.7148C74.0852 18.7148 73.6848 18.6348 73.3293 18.4746C72.9738 18.3105 72.6691 18.084 72.4152 17.7949C72.1652 17.502 71.9738 17.1602 71.841 16.7695C71.7082 16.3789 71.6418 15.9551 71.6418 15.498ZM72.7258 15.3633V15.498C72.7258 15.8145 72.7629 16.1133 72.8371 16.3945C72.9113 16.6719 73.0227 16.918 73.1711 17.1328C73.3234 17.3477 73.5129 17.5176 73.7395 17.6426C73.966 17.7637 74.2297 17.8242 74.5305 17.8242C74.8273 17.8242 75.0871 17.7637 75.3098 17.6426C75.5363 17.5176 75.7238 17.3477 75.8723 17.1328C76.0207 16.918 76.132 16.6719 76.2062 16.3945C76.2844 16.1133 76.3234 15.8145 76.3234 15.498V15.3633C76.3234 15.0508 76.2844 14.7559 76.2062 14.4785C76.132 14.1973 76.0187 13.9492 75.8664 13.7344C75.718 13.5156 75.5305 13.3438 75.3039 13.2188C75.0812 13.0938 74.8195 13.0312 74.5187 13.0312C74.2219 13.0312 73.9602 13.0938 73.7336 13.2188C73.5109 13.3438 73.3234 13.5156 73.1711 13.7344C73.0227 13.9492 72.9113 14.1973 72.8371 14.4785C72.7629 14.7559 72.7258 15.0508 72.7258 15.3633Z" fill="white" fill-opacity="0.8"/>
<path d="M82.2709 17.5137V14.25C82.2709 14 82.2202 13.7832 82.1186 13.5996C82.0209 13.4121 81.8725 13.2676 81.6733 13.166C81.4741 13.0645 81.228 13.0137 80.935 13.0137C80.6616 13.0137 80.4213 13.0605 80.2143 13.1543C80.0112 13.248 79.851 13.3711 79.7338 13.5234C79.6205 13.6758 79.5639 13.8398 79.5639 14.0156H78.4799C78.4799 13.7891 78.5385 13.5645 78.6557 13.3418C78.7729 13.1191 78.9409 12.918 79.1596 12.7383C79.3823 12.5547 79.6479 12.4102 79.9565 12.3047C80.269 12.1953 80.6166 12.1406 80.9995 12.1406C81.4604 12.1406 81.8666 12.2188 82.2182 12.375C82.5737 12.5312 82.851 12.7676 83.0502 13.084C83.2534 13.3965 83.3549 13.7891 83.3549 14.2617V17.2148C83.3549 17.4258 83.3725 17.6504 83.4077 17.8887C83.4467 18.127 83.5034 18.332 83.5776 18.5039V18.5977H82.4467C82.392 18.4727 82.3491 18.3066 82.3178 18.0996C82.2866 17.8887 82.2709 17.6934 82.2709 17.5137ZM82.4584 14.7539L82.4702 15.5156H81.3745C81.0659 15.5156 80.7905 15.541 80.5483 15.5918C80.3061 15.6387 80.103 15.7109 79.9389 15.8086C79.7748 15.9062 79.6498 16.0293 79.5639 16.1777C79.478 16.3223 79.435 16.4922 79.435 16.6875C79.435 16.8867 79.4799 17.0684 79.5698 17.2324C79.6596 17.3965 79.7944 17.5273 79.9741 17.625C80.1577 17.7188 80.3823 17.7656 80.6479 17.7656C80.9799 17.7656 81.2729 17.6953 81.5268 17.5547C81.7807 17.4141 81.9819 17.2422 82.1303 17.0391C82.2827 16.8359 82.3647 16.6387 82.3764 16.4473L82.8393 16.9688C82.812 17.1328 82.7377 17.3145 82.6166 17.5137C82.4955 17.7129 82.3334 17.9043 82.1303 18.0879C81.9311 18.2676 81.6928 18.418 81.4155 18.5391C81.142 18.6562 80.8334 18.7148 80.4897 18.7148C80.06 18.7148 79.683 18.6309 79.3588 18.4629C79.0385 18.2949 78.7885 18.0703 78.6088 17.7891C78.433 17.5039 78.3452 17.1855 78.3452 16.834C78.3452 16.4941 78.4116 16.1953 78.5444 15.9375C78.6772 15.6758 78.8686 15.459 79.1186 15.2871C79.3686 15.1113 79.6694 14.9785 80.0209 14.8887C80.3725 14.7988 80.7651 14.7539 81.1987 14.7539H82.4584Z" fill="white" fill-opacity="0.8"/>
<path d="M88.8161 17.3672V9.59766H89.9059V18.5977H88.9098L88.8161 17.3672ZM84.5505 15.498V15.375C84.5505 14.8906 84.6091 14.4512 84.7262 14.0566C84.8473 13.6582 85.0173 13.3164 85.236 13.0312C85.4587 12.7461 85.7223 12.5273 86.027 12.375C86.3356 12.2188 86.6794 12.1406 87.0583 12.1406C87.4567 12.1406 87.8044 12.2109 88.1012 12.3516C88.402 12.4883 88.6559 12.6895 88.863 12.9551C89.0739 13.2168 89.2399 13.5332 89.361 13.9043C89.4821 14.2754 89.5661 14.6953 89.613 15.1641V15.7031C89.57 16.168 89.486 16.5859 89.361 16.957C89.2399 17.3281 89.0739 17.6445 88.863 17.9062C88.6559 18.168 88.402 18.3691 88.1012 18.5098C87.8005 18.6465 87.4489 18.7148 87.0466 18.7148C86.6755 18.7148 86.3356 18.6348 86.027 18.4746C85.7223 18.3145 85.4587 18.0898 85.236 17.8008C85.0173 17.5117 84.8473 17.1719 84.7262 16.7812C84.6091 16.3867 84.5505 15.959 84.5505 15.498ZM85.6403 15.375V15.498C85.6403 15.8145 85.6716 16.1113 85.7341 16.3887C85.8005 16.666 85.902 16.9102 86.0387 17.1211C86.1755 17.332 86.3493 17.498 86.5602 17.6191C86.7712 17.7363 87.0231 17.7949 87.3161 17.7949C87.6755 17.7949 87.9704 17.7188 88.2009 17.5664C88.4352 17.4141 88.6227 17.2129 88.7634 16.9629C88.904 16.7129 89.0134 16.4414 89.0915 16.1484V14.7363C89.0446 14.5215 88.9762 14.3145 88.8864 14.1152C88.8005 13.9121 88.6872 13.7324 88.5466 13.5762C88.4098 13.416 88.2399 13.2891 88.0368 13.1953C87.8376 13.1016 87.6012 13.0547 87.3278 13.0547C87.0309 13.0547 86.7751 13.1172 86.5602 13.2422C86.3493 13.3633 86.1755 13.5312 86.0387 13.7461C85.902 13.957 85.8005 14.2031 85.7341 14.4844C85.6716 14.7617 85.6403 15.0586 85.6403 15.375Z" fill="white" fill-opacity="0.8"/>
<path d="M95.0448 16.916C95.0448 16.7598 95.0097 16.6152 94.9394 16.4824C94.873 16.3457 94.7343 16.2227 94.5234 16.1133C94.3163 16 94.0038 15.9023 93.5859 15.8203C93.2343 15.7461 92.9159 15.6582 92.6308 15.5566C92.3495 15.4551 92.1093 15.332 91.9101 15.1875C91.7148 15.043 91.5644 14.873 91.4589 14.6777C91.3534 14.4824 91.3007 14.2539 91.3007 13.9922C91.3007 13.7422 91.3554 13.5059 91.4648 13.2832C91.578 13.0605 91.7363 12.8633 91.9394 12.6914C92.1464 12.5195 92.3945 12.3848 92.6835 12.2871C92.9726 12.1895 93.2948 12.1406 93.6503 12.1406C94.1581 12.1406 94.5917 12.2305 94.9511 12.4102C95.3105 12.5898 95.5859 12.8301 95.7773 13.1309C95.9687 13.4277 96.0644 13.7578 96.0644 14.1211H94.9804C94.9804 13.9453 94.9277 13.7754 94.8222 13.6113C94.7206 13.4434 94.5702 13.3047 94.371 13.1953C94.1757 13.0859 93.9355 13.0312 93.6503 13.0312C93.3495 13.0312 93.1054 13.0781 92.9179 13.1719C92.7343 13.2617 92.5995 13.377 92.5136 13.5176C92.4316 13.6582 92.3905 13.8066 92.3905 13.9629C92.3905 14.0801 92.4101 14.1855 92.4491 14.2793C92.4921 14.3691 92.5663 14.4531 92.6718 14.5312C92.7773 14.6055 92.9257 14.6758 93.1171 14.7422C93.3085 14.8086 93.5527 14.875 93.8495 14.9414C94.3691 15.0586 94.7968 15.1992 95.1327 15.3633C95.4687 15.5273 95.7187 15.7285 95.8827 15.9668C96.0468 16.2051 96.1288 16.4941 96.1288 16.834C96.1288 17.1113 96.0702 17.3652 95.953 17.5957C95.8398 17.8262 95.6738 18.0254 95.455 18.1934C95.2402 18.3574 94.9823 18.4863 94.6816 18.5801C94.3847 18.6699 94.0507 18.7148 93.6796 18.7148C93.121 18.7148 92.6484 18.6152 92.2616 18.416C91.8749 18.2168 91.582 17.959 91.3827 17.6426C91.1835 17.3262 91.0839 16.9922 91.0839 16.6406H92.1738C92.1894 16.9375 92.2753 17.1738 92.4316 17.3496C92.5878 17.5215 92.7792 17.6445 93.0058 17.7188C93.2323 17.7891 93.457 17.8242 93.6796 17.8242C93.9765 17.8242 94.2245 17.7852 94.4238 17.707C94.6269 17.6289 94.7812 17.5215 94.8866 17.3848C94.9921 17.248 95.0448 17.0918 95.0448 16.916Z" fill="white" fill-opacity="0.8"/>
<path d="M99.7621 15.498V15.3633C99.7621 14.9062 99.8285 14.4824 99.9613 14.0918C100.094 13.6973 100.286 13.3555 100.536 13.0664C100.786 12.7734 101.088 12.5469 101.444 12.3867C101.799 12.2227 102.198 12.1406 102.639 12.1406C103.084 12.1406 103.485 12.2227 103.84 12.3867C104.2 12.5469 104.504 12.7734 104.754 13.0664C105.008 13.3555 105.202 13.6973 105.334 14.0918C105.467 14.4824 105.534 14.9062 105.534 15.3633V15.498C105.534 15.9551 105.467 16.3789 105.334 16.7695C105.202 17.1602 105.008 17.502 104.754 17.7949C104.504 18.084 104.202 18.3105 103.846 18.4746C103.495 18.6348 103.096 18.7148 102.651 18.7148C102.205 18.7148 101.805 18.6348 101.45 18.4746C101.094 18.3105 100.789 18.084 100.536 17.7949C100.286 17.502 100.094 17.1602 99.9613 16.7695C99.8285 16.3789 99.7621 15.9551 99.7621 15.498ZM100.846 15.3633V15.498C100.846 15.8145 100.883 16.1133 100.957 16.3945C101.032 16.6719 101.143 16.918 101.291 17.1328C101.444 17.3477 101.633 17.5176 101.86 17.6426C102.086 17.7637 102.35 17.8242 102.651 17.8242C102.948 17.8242 103.207 17.7637 103.43 17.6426C103.657 17.5176 103.844 17.3477 103.993 17.1328C104.141 16.918 104.252 16.6719 104.327 16.3945C104.405 16.1133 104.444 15.8145 104.444 15.498V15.3633C104.444 15.0508 104.405 14.7559 104.327 14.4785C104.252 14.1973 104.139 13.9492 103.987 13.7344C103.838 13.5156 103.651 13.3438 103.424 13.2188C103.202 13.0938 102.94 13.0312 102.639 13.0312C102.342 13.0312 102.08 13.0938 101.854 13.2188C101.631 13.3438 101.444 13.5156 101.291 13.7344C101.143 13.9492 101.032 14.1973 100.957 14.4785C100.883 14.7559 100.846 15.0508 100.846 15.3633Z" fill="white" fill-opacity="0.8"/>
<path d="M107.737 13.6113V18.5977H106.653V12.2578H107.678L107.737 13.6113ZM107.479 15.1875L107.028 15.1699C107.032 14.7363 107.096 14.3359 107.221 13.9688C107.346 13.5977 107.522 13.2754 107.749 13.002C107.975 12.7285 108.245 12.5176 108.557 12.3691C108.874 12.2168 109.223 12.1406 109.606 12.1406C109.919 12.1406 110.2 12.1836 110.45 12.2695C110.7 12.3516 110.913 12.4844 111.089 12.668C111.268 12.8516 111.405 13.0898 111.499 13.3828C111.592 13.6719 111.639 14.0254 111.639 14.4434V18.5977H110.549V14.4316C110.549 14.0996 110.501 13.834 110.403 13.6348C110.305 13.4316 110.163 13.2852 109.975 13.1953C109.788 13.1016 109.557 13.0547 109.284 13.0547C109.014 13.0547 108.768 13.1113 108.546 13.2246C108.327 13.3379 108.137 13.4941 107.977 13.6934C107.821 13.8926 107.698 14.1211 107.608 14.3789C107.522 14.6328 107.479 14.9023 107.479 15.1875Z" fill="white" fill-opacity="0.8"/>
<path d="M118.437 12.2578V13.0898H115.009V12.2578H118.437ZM116.169 10.7168H117.253V17.0273C117.253 17.2422 117.286 17.4043 117.353 17.5137C117.419 17.623 117.505 17.6953 117.61 17.7305C117.716 17.7656 117.829 17.7832 117.95 17.7832C118.04 17.7832 118.134 17.7754 118.232 17.7598C118.333 17.7402 118.409 17.7246 118.46 17.7129L118.466 18.5977C118.38 18.625 118.267 18.6504 118.126 18.6738C117.989 18.7012 117.823 18.7148 117.628 18.7148C117.362 18.7148 117.118 18.6621 116.896 18.5566C116.673 18.4512 116.495 18.2754 116.362 18.0293C116.234 17.7793 116.169 17.4434 116.169 17.0215V10.7168Z" fill="white" fill-opacity="0.8"/>
<path d="M120.552 9.59766V18.5977H119.468V9.59766H120.552ZM120.294 15.1875L119.843 15.1699C119.847 14.7363 119.911 14.3359 120.036 13.9688C120.161 13.5977 120.337 13.2754 120.564 13.002C120.79 12.7285 121.06 12.5176 121.372 12.3691C121.689 12.2168 122.038 12.1406 122.421 12.1406C122.734 12.1406 123.015 12.1836 123.265 12.2695C123.515 12.3516 123.728 12.4844 123.904 12.668C124.083 12.8516 124.22 13.0898 124.314 13.3828C124.408 13.6719 124.454 14.0254 124.454 14.4434V18.5977H123.365V14.4316C123.365 14.0996 123.316 13.834 123.218 13.6348C123.12 13.4316 122.978 13.2852 122.79 13.1953C122.603 13.1016 122.372 13.0547 122.099 13.0547C121.829 13.0547 121.583 13.1113 121.361 13.2246C121.142 13.3379 120.952 13.4941 120.792 13.6934C120.636 13.8926 120.513 14.1211 120.423 14.3789C120.337 14.6328 120.294 14.9023 120.294 15.1875Z" fill="white" fill-opacity="0.8"/>
<path d="M128.468 18.7148C128.027 18.7148 127.627 18.6406 127.267 18.4922C126.912 18.3398 126.605 18.127 126.347 17.8535C126.093 17.5801 125.898 17.2559 125.761 16.8809C125.625 16.5059 125.556 16.0957 125.556 15.6504V15.4043C125.556 14.8887 125.632 14.4297 125.785 14.0273C125.937 13.6211 126.144 13.2773 126.406 12.9961C126.668 12.7148 126.964 12.502 127.296 12.3574C127.629 12.2129 127.972 12.1406 128.328 12.1406C128.781 12.1406 129.171 12.2188 129.5 12.375C129.832 12.5312 130.103 12.75 130.314 13.0312C130.525 13.3086 130.681 13.6367 130.783 14.0156C130.884 14.3906 130.935 14.8008 130.935 15.2461V15.7324H126.201V14.8477H129.851V14.7656C129.836 14.4844 129.777 14.2109 129.675 13.9453C129.578 13.6797 129.421 13.4609 129.207 13.2891C128.992 13.1172 128.699 13.0312 128.328 13.0312C128.082 13.0312 127.855 13.084 127.648 13.1895C127.441 13.291 127.263 13.4434 127.115 13.6465C126.966 13.8496 126.851 14.0977 126.769 14.3906C126.687 14.6836 126.646 15.0215 126.646 15.4043V15.6504C126.646 15.9512 126.687 16.2344 126.769 16.5C126.855 16.7617 126.978 16.9922 127.138 17.1914C127.302 17.3906 127.5 17.5469 127.73 17.6602C127.964 17.7734 128.23 17.8301 128.527 17.8301C128.91 17.8301 129.234 17.752 129.5 17.5957C129.765 17.4395 129.998 17.2305 130.197 16.9688L130.853 17.4902C130.716 17.6973 130.543 17.8945 130.332 18.082C130.121 18.2695 129.861 18.4219 129.552 18.5391C129.248 18.6562 128.886 18.7148 128.468 18.7148Z" fill="white" fill-opacity="0.8"/>
<path d="M45.5859 28.8164L42.4922 38.2461H40L44.2266 26.8711H45.8125L45.5859 28.8164ZM48.1562 38.2461L45.0547 28.8164L44.8047 26.8711H46.4062L50.6562 38.2461H48.1562ZM48.0156 34.0117V35.8477H42.0078V34.0117H48.0156Z" fill="white"/>
<path d="M56.1406 34.1914H53.2422V32.3633H56.1406C56.5885 32.3633 56.9531 32.2904 57.2344 32.1445C57.5156 31.9935 57.7214 31.7852 57.8516 31.5195C57.9818 31.2539 58.0469 30.9544 58.0469 30.6211C58.0469 30.2826 57.9818 29.9674 57.8516 29.6758C57.7214 29.3841 57.5156 29.1497 57.2344 28.9727C56.9531 28.7956 56.5885 28.707 56.1406 28.707H54.0547V38.2461H51.7109V26.8711H56.1406C57.0312 26.8711 57.7943 27.0326 58.4297 27.3555C59.0703 27.6732 59.5599 28.1133 59.8984 28.6758C60.237 29.2383 60.4062 29.8815 60.4062 30.6055C60.4062 31.3398 60.237 31.9753 59.8984 32.5117C59.5599 33.0482 59.0703 33.4622 58.4297 33.7539C57.7943 34.0456 57.0312 34.1914 56.1406 34.1914Z" fill="white"/>
<path d="M66.4531 34.1914H63.5547V32.3633H66.4531C66.901 32.3633 67.2656 32.2904 67.5469 32.1445C67.8281 31.9935 68.0339 31.7852 68.1641 31.5195C68.2943 31.2539 68.3594 30.9544 68.3594 30.6211C68.3594 30.2826 68.2943 29.9674 68.1641 29.6758C68.0339 29.3841 67.8281 29.1497 67.5469 28.9727C67.2656 28.7956 66.901 28.707 66.4531 28.707H64.3672V38.2461H62.0234V26.8711H66.4531C67.3438 26.8711 68.1068 27.0326 68.7422 27.3555C69.3828 27.6732 69.8724 28.1133 70.2109 28.6758C70.5495 29.2383 70.7188 29.8815 70.7188 30.6055C70.7188 31.3398 70.5495 31.9753 70.2109 32.5117C69.8724 33.0482 69.3828 33.4622 68.7422 33.7539C68.1068 34.0456 67.3438 34.1914 66.4531 34.1914Z" fill="white"/>
<path d="M82.2422 35.2695C82.2422 35.0664 82.2109 34.8841 82.1484 34.7227C82.0911 34.556 81.9818 34.4049 81.8203 34.2695C81.6589 34.1289 81.4323 33.9909 81.1406 33.8555C80.849 33.7201 80.4714 33.5794 80.0078 33.4336C79.4922 33.2669 79.0026 33.0794 78.5391 32.8711C78.0807 32.6628 77.6745 32.4206 77.3203 32.1445C76.9714 31.8633 76.6953 31.5378 76.4922 31.168C76.2943 30.7982 76.1953 30.3685 76.1953 29.8789C76.1953 29.4049 76.2995 28.9753 76.5078 28.5898C76.7161 28.1992 77.0078 27.8659 77.3828 27.5898C77.7578 27.3086 78.2005 27.0924 78.7109 26.9414C79.2266 26.7904 79.7917 26.7148 80.4062 26.7148C81.2448 26.7148 81.9766 26.8659 82.6016 27.168C83.2266 27.4701 83.7109 27.8841 84.0547 28.4102C84.4036 28.9362 84.5781 29.5378 84.5781 30.2148H82.25C82.25 29.8815 82.1797 29.5898 82.0391 29.3398C81.9036 29.0846 81.6953 28.8841 81.4141 28.7383C81.138 28.5924 80.7891 28.5195 80.3672 28.5195C79.9609 28.5195 79.6224 28.582 79.3516 28.707C79.0807 28.8268 78.8776 28.9909 78.7422 29.1992C78.6068 29.4023 78.5391 29.6315 78.5391 29.8867C78.5391 30.0794 78.5859 30.2539 78.6797 30.4102C78.7786 30.5664 78.9245 30.7122 79.1172 30.8477C79.3099 30.9831 79.5469 31.1107 79.8281 31.2305C80.1094 31.3503 80.4349 31.4674 80.8047 31.582C81.4245 31.7695 81.9688 31.9805 82.4375 32.2148C82.9115 32.4492 83.3073 32.7122 83.625 33.0039C83.9427 33.2956 84.1823 33.6263 84.3438 33.9961C84.5052 34.3659 84.5859 34.7852 84.5859 35.2539C84.5859 35.7487 84.4896 36.1914 84.2969 36.582C84.1042 36.9727 83.8255 37.3034 83.4609 37.5742C83.0964 37.8451 82.6615 38.0508 82.1562 38.1914C81.651 38.332 81.0859 38.4023 80.4609 38.4023C79.8984 38.4023 79.3438 38.3294 78.7969 38.1836C78.25 38.0326 77.7526 37.806 77.3047 37.5039C76.862 37.2018 76.5078 36.8164 76.2422 36.3477C75.9766 35.8789 75.8438 35.3242 75.8438 34.6836H78.1953C78.1953 35.0378 78.25 35.3372 78.3594 35.582C78.4688 35.8268 78.6224 36.0247 78.8203 36.1758C79.0234 36.3268 79.263 36.4362 79.5391 36.5039C79.8203 36.5716 80.1276 36.6055 80.4609 36.6055C80.8672 36.6055 81.2005 36.5482 81.4609 36.4336C81.7266 36.319 81.9219 36.1602 82.0469 35.957C82.1771 35.7539 82.2422 35.5247 82.2422 35.2695Z" fill="white"/>
<path d="M90.1797 29.793V31.3867H85.2578V29.793H90.1797ZM86.4766 27.707H88.7266V35.6992C88.7266 35.944 88.7578 36.1315 88.8203 36.2617C88.888 36.3919 88.987 36.4831 89.1172 36.5352C89.2474 36.582 89.4115 36.6055 89.6094 36.6055C89.75 36.6055 89.875 36.6003 89.9844 36.5898C90.099 36.5742 90.1953 36.5586 90.2734 36.543L90.2812 38.1992C90.0885 38.2617 89.8802 38.3112 89.6562 38.3477C89.4323 38.3841 89.1849 38.4023 88.9141 38.4023C88.4193 38.4023 87.987 38.3216 87.6172 38.1602C87.2526 37.9935 86.9714 37.7279 86.7734 37.3633C86.5755 36.9987 86.4766 36.5195 86.4766 35.9258V27.707Z" fill="white"/>
<path d="M90.8984 34.1055V33.9414C90.8984 33.3216 90.987 32.7513 91.1641 32.2305C91.3411 31.7044 91.599 31.2487 91.9375 30.8633C92.276 30.4779 92.6927 30.1784 93.1875 29.9648C93.6823 29.7461 94.25 29.6367 94.8906 29.6367C95.5312 29.6367 96.1016 29.7461 96.6016 29.9648C97.1016 30.1784 97.5208 30.4779 97.8594 30.8633C98.2031 31.2487 98.4635 31.7044 98.6406 32.2305C98.8177 32.7513 98.9062 33.3216 98.9062 33.9414V34.1055C98.9062 34.7201 98.8177 35.2904 98.6406 35.8164C98.4635 36.3372 98.2031 36.793 97.8594 37.1836C97.5208 37.569 97.1042 37.8685 96.6094 38.082C96.1146 38.2956 95.5469 38.4023 94.9062 38.4023C94.2656 38.4023 93.6953 38.2956 93.1953 38.082C92.7005 37.8685 92.2812 37.569 91.9375 37.1836C91.599 36.793 91.3411 36.3372 91.1641 35.8164C90.987 35.2904 90.8984 34.7201 90.8984 34.1055ZM93.1484 33.9414V34.1055C93.1484 34.4596 93.1797 34.7904 93.2422 35.0977C93.3047 35.4049 93.4036 35.6758 93.5391 35.9102C93.6797 36.1393 93.862 36.319 94.0859 36.4492C94.3099 36.5794 94.5833 36.6445 94.9062 36.6445C95.2188 36.6445 95.487 36.5794 95.7109 36.4492C95.9349 36.319 96.1146 36.1393 96.25 35.9102C96.3854 35.6758 96.4844 35.4049 96.5469 35.0977C96.6146 34.7904 96.6484 34.4596 96.6484 34.1055V33.9414C96.6484 33.5977 96.6146 33.2747 96.5469 32.9727C96.4844 32.6654 96.3828 32.3945 96.2422 32.1602C96.1068 31.9206 95.9271 31.7331 95.7031 31.5977C95.4792 31.4622 95.2083 31.3945 94.8906 31.3945C94.5729 31.3945 94.3021 31.4622 94.0781 31.5977C93.8594 31.7331 93.6797 31.9206 93.5391 32.1602C93.4036 32.3945 93.3047 32.6654 93.2422 32.9727C93.1797 33.2747 93.1484 33.5977 93.1484 33.9414Z" fill="white"/>
<path d="M102.539 31.6367V38.2461H100.289V29.793H102.406L102.539 31.6367ZM105.086 29.7383L105.047 31.8242C104.938 31.8086 104.805 31.7956 104.648 31.7852C104.497 31.7695 104.359 31.7617 104.234 31.7617C103.917 31.7617 103.641 31.8034 103.406 31.8867C103.177 31.9648 102.984 32.082 102.828 32.2383C102.677 32.3945 102.562 32.5846 102.484 32.8086C102.411 33.0326 102.37 33.2878 102.359 33.5742L101.906 33.4336C101.906 32.8867 101.961 32.3841 102.07 31.9258C102.18 31.4622 102.339 31.0586 102.547 30.7148C102.76 30.3711 103.021 30.1055 103.328 29.918C103.635 29.7305 103.987 29.6367 104.383 29.6367C104.508 29.6367 104.635 29.6471 104.766 29.668C104.896 29.6836 105.003 29.707 105.086 29.7383Z" fill="white"/>
<path d="M109.883 38.4023C109.227 38.4023 108.638 38.2982 108.117 38.0898C107.596 37.8763 107.154 37.582 106.789 37.207C106.43 36.832 106.154 36.3971 105.961 35.9023C105.768 35.4023 105.672 34.8711 105.672 34.3086V33.9961C105.672 33.3555 105.763 32.7695 105.945 32.2383C106.128 31.707 106.388 31.2461 106.727 30.8555C107.07 30.4648 107.487 30.1654 107.977 29.957C108.466 29.7435 109.018 29.6367 109.633 29.6367C110.232 29.6367 110.763 29.7357 111.227 29.9336C111.69 30.1315 112.078 30.4128 112.391 30.7773C112.708 31.1419 112.948 31.5794 113.109 32.0898C113.271 32.5951 113.352 33.1576 113.352 33.7773V34.7148H106.633V33.2148H111.141V33.043C111.141 32.7305 111.083 32.4518 110.969 32.207C110.859 31.957 110.693 31.7591 110.469 31.6133C110.245 31.4674 109.958 31.3945 109.609 31.3945C109.312 31.3945 109.057 31.4596 108.844 31.5898C108.63 31.7201 108.456 31.9023 108.32 32.1367C108.19 32.3711 108.091 32.6471 108.023 32.9648C107.961 33.2773 107.93 33.6211 107.93 33.9961V34.3086C107.93 34.6471 107.977 34.9596 108.07 35.2461C108.169 35.5326 108.307 35.7799 108.484 35.9883C108.667 36.1966 108.885 36.3581 109.141 36.4727C109.401 36.5872 109.695 36.6445 110.023 36.6445C110.43 36.6445 110.807 36.5664 111.156 36.4102C111.51 36.2487 111.815 36.0065 112.07 35.6836L113.164 36.8711C112.987 37.1263 112.745 37.3711 112.438 37.6055C112.135 37.8398 111.771 38.0326 111.344 38.1836C110.917 38.3294 110.43 38.4023 109.883 38.4023Z" fill="white"/>
</svg>
